<?xml version="1.0" standalone="no"?>
<!DOCTYPE svg PUBLIC "-//W3C//DTD SVG 20010904//EN"
 "http://www.w3.org/TR/2001/REC-SVG-20010904/DTD/svg10.dtd">
<svg version="1.0" xmlns="http://www.w3.org/2000/svg"
 width="500.000000pt" height="500.000000pt" viewBox="0 0 500.000000 500.000000"
 preserveAspectRatio="xMidYMid meet">

<g transform="translate(0.000000,500.000000) scale(0.100000,-0.100000)"
fill="#000000" stroke="none">
<path d="M2390 4643 c-319 -32 -520 -78 -745 -174 -254 -107 -476 -260 -683
-469 -339 -342 -531 -711 -613 -1177 -30 -170 -34 -558 -7 -723 112 -683 555
-1291 1164 -1598 319 -161 576 -227 929 -239 196 -6 342 4 503 38 579 118
1106 473 1418 954 156 240 258 514 316 845 26 152 30 200 31 365 1 271 -31
460 -120 705 -86 238 -234 503 -377 675 -236 282 -550 511 -881 643 -289 115
-684 180 -935 155z m-456 -1072 c13 -15 625 -1855 626 -1883 0 -5 -126 -8
-280 -8 l-279 0 -14 48 c-8 26 -29 104 -48 174 l-34 128 -306 0 -306 0 -38
-137 c-21 -76 -44 -154 -52 -174 l-14 -36 -82 -6 c-139 -11 -477 -8 -477 4 0
6 94 299 209 652 115 353 253 776 306 940 80 248 100 300 118 307 12 5 164 9
338 9 297 1 317 0 333 -18z m1208 -393 l3 -401 259 379 c142 208 268 389 279
402 20 22 23 22 299 22 l279 0 -33 -47 c-17 -27 -150 -216 -295 -421 -145
-205 -263 -380 -263 -388 0 -21 1 -23 298 -548 145 -258 267 -477 269 -487 5
-18 -6 -19 -274 -19 -208 0 -283 3 -295 13 -8 6 -97 171 -198 364 l-181 353
-57 -36 c-101 -64 -92 -27 -92 -376 l0 -308 -260 0 -260 0 0 950 0 950 260 0
260 0 2 -402z"/>
<path d="M1499 2850 l-96 -390 198 0 197 0 -99 386 c-54 213 -100 388 -101
390 -2 2 -47 -172 -99 -386z"/>
</g>
</svg>
